<svg width="195" height="128" viewBox="0 0 195 128" fill="none" xmlns="http://www.w3.org/2000/svg">
<g clip-path="url(#clip0_6_81)">
<path opacity="0.56" d="M98.8423 128C151.949 128 195 120.616 195 111.508C195 102.399 151.949 95.0151 98.8423 95.0151C45.7359 95.0151 2.6846 102.399 2.6846 111.508C2.6846 120.616 45.7359 128 98.8423 128Z" fill="#EBEBEB"/>
<path d="M68.4767 81.4967L101.231 76.8103H130.017L155.746 81.8572L111.482 104.22L68.4767 81.4967Z" fill="#C2C8C7"/>
<path d="M128.643 105.122C128.643 105.122 70.6989 73.2054 63.8654 83.6596C53.9876 98.7745 69.0805 106.383 122.875 120.816L128.643 105.122Z" fill="#37474F"/>
<path d="M144.571 121.073C144.912 120.248 145.087 119.364 145.087 118.471C145.087 117.578 144.911 116.694 144.57 115.869C144.229 115.044 143.729 114.294 143.099 113.663C142.468 113.032 141.72 112.531 140.897 112.19L127.512 106.628L122.374 119.207L135.695 124.794C136.521 125.137 137.407 125.312 138.301 125.311C139.195 125.309 140.08 125.13 140.905 124.784C141.73 124.439 142.478 123.933 143.107 123.296C143.736 122.659 144.234 121.904 144.571 121.073Z" fill="#8E8E8E"/>
<path d="M126.665 108.662L136.786 112.859C137.345 113.091 137.852 113.431 138.28 113.859C138.707 114.287 139.046 114.795 139.277 115.355C139.509 115.914 139.628 116.514 139.628 117.12C139.628 117.725 139.509 118.325 139.278 118.885C139.047 119.444 138.708 119.953 138.281 120.381C137.854 120.81 137.347 121.15 136.789 121.381C136.231 121.613 135.632 121.733 135.028 121.733C134.424 121.733 133.825 121.614 133.267 121.382L123.145 117.185L126.665 108.662Z" fill="#C2C8C7"/>
<path opacity="0.45" d="M123.196 117.069L136.568 122.631C138.05 123.241 139.699 123.307 141.224 122.817C142.749 122.327 144.053 121.313 144.905 119.953C144.7 120.927 144.282 121.843 143.682 122.635C143.081 123.427 142.312 124.076 141.431 124.534C140.55 124.992 139.578 125.249 138.586 125.285C137.594 125.321 136.607 125.136 135.695 124.743L122.323 119.194L123.196 117.069Z" fill="#C2C8C7"/>
<path d="M127.628 117.301L129.76 112.151C129.812 112.025 129.911 111.924 130.036 111.871C130.161 111.818 130.302 111.817 130.428 111.868C130.552 111.922 130.65 112.022 130.703 112.146C130.755 112.271 130.758 112.411 130.711 112.538L128.566 117.687C128.514 117.814 128.415 117.914 128.29 117.967C128.165 118.02 128.024 118.022 127.898 117.971C127.774 117.917 127.677 117.816 127.626 117.691C127.576 117.566 127.576 117.426 127.628 117.301Z" fill="#E6E6E6"/>
<path d="M130.775 118.602L132.907 113.452C132.961 113.328 133.061 113.23 133.186 113.179C133.311 113.129 133.451 113.13 133.575 113.181C133.639 113.205 133.697 113.242 133.745 113.289C133.794 113.336 133.833 113.393 133.86 113.455C133.886 113.518 133.899 113.585 133.899 113.653C133.899 113.721 133.885 113.788 133.858 113.851L131.713 119.001C131.687 119.063 131.65 119.12 131.602 119.167C131.555 119.215 131.498 119.253 131.436 119.278C131.374 119.303 131.307 119.315 131.24 119.314C131.172 119.313 131.106 119.298 131.045 119.271C130.921 119.217 130.824 119.117 130.773 118.992C130.723 118.866 130.723 118.726 130.775 118.602Z" fill="#E6E6E6"/>
<path d="M134.243 120.043L136.375 114.894C136.429 114.77 136.529 114.671 136.653 114.618C136.777 114.566 136.917 114.563 137.043 114.61C137.167 114.664 137.265 114.764 137.318 114.889C137.371 115.013 137.373 115.153 137.326 115.28L135.181 120.43C135.13 120.556 135.03 120.657 134.905 120.71C134.78 120.763 134.639 120.764 134.513 120.713C134.451 120.688 134.394 120.65 134.346 120.602C134.299 120.555 134.262 120.498 134.236 120.436C134.211 120.373 134.199 120.306 134.2 120.239C134.201 120.171 134.216 120.105 134.243 120.043Z" fill="#E6E6E6"/>
<path d="M149.593 61.9915C148.694 58.9145 144.262 53.726 140.319 43.0658C136.221 31.9936 118.765 30.7962 118.765 30.7962L111.944 34.4398L105.201 30.8091C105.201 30.8091 87.7314 32.0064 83.6338 43.0786C79.7032 53.7389 75.2589 58.9274 74.3726 62.0044C73.4863 65.0815 78.2903 84.9214 92.0986 87.7538H131.854C145.675 84.8827 150.479 65.0557 149.593 61.9915Z" fill="#16A085" fill-opacity="0.52"/>
<path d="M119.523 30.8735V36.3195C119.523 36.3195 118.238 42.3963 112.355 43.4134C110.612 43.0459 109.013 42.1805 107.75 40.9216C106.487 39.6628 105.615 38.0643 105.239 36.3195V30.8735H119.523Z" fill="#F49290"/>
<path d="M98.8037 20.1746C98.8037 20.1746 96.7871 7.45445 101.617 5.90948C102.901 5.48462 101.964 1.28747 109.324 1.23597C119.369 1.15872 127.307 -0.193108 125.958 20.3549L98.8037 20.1746Z" fill="#263238"/>
<path d="M105.162 21.578C105.162 20.8904 104.959 20.2183 104.578 19.6467C104.196 19.075 103.655 18.6295 103.021 18.3664C102.387 18.1033 101.69 18.0345 101.017 18.1686C100.345 18.3027 99.7266 18.6338 99.2416 19.1199C98.7565 19.6061 98.4262 20.2255 98.2924 20.8998C98.1586 21.5741 98.2273 22.273 98.4897 22.9082C98.7522 23.5434 99.1968 24.0863 99.7671 24.4683C100.337 24.8502 101.008 25.0541 101.694 25.0541C102.614 25.0541 103.496 24.6879 104.146 24.036C104.797 23.3841 105.162 22.4999 105.162 21.578Z" fill="#FFB5B1"/>
<path d="M126.292 21.578C126.292 20.8904 126.089 20.2183 125.708 19.6467C125.327 19.075 124.785 18.6295 124.151 18.3664C123.517 18.1033 122.82 18.0345 122.147 18.1686C121.475 18.3027 120.857 18.6338 120.372 19.1199C119.887 19.6061 119.556 20.2255 119.422 20.8998C119.289 21.5741 119.357 22.273 119.62 22.9082C119.882 23.5434 120.327 24.0863 120.897 24.4683C121.467 24.8502 122.138 25.0541 122.824 25.0541C123.744 25.0541 124.626 24.6879 125.276 24.036C125.927 23.3841 126.292 22.4999 126.292 21.578Z" fill="#FFB5B1"/>
<path d="M123.916 15.6942C122.97 15.3238 122.147 14.6959 121.539 13.8815C120.931 13.0671 120.562 12.0986 120.473 11.0851L118.958 11.5099C114.75 12.6826 110.298 12.6424 106.113 11.3941L104.905 11.0851C104.802 12.1158 104.41 13.0961 103.773 13.912C103.136 14.7279 102.282 15.3459 101.309 15.6942L101.219 21.3333C101.374 25.0457 102.62 28.6293 104.802 31.6331C105.7 32.8548 106.872 33.8479 108.223 34.5323C109.574 35.2167 111.066 35.5733 112.58 35.5733C114.094 35.5733 115.586 35.2167 116.937 34.5323C118.288 33.8479 119.46 32.8548 120.358 31.6331C122.544 28.6304 123.795 25.0469 123.954 21.3333V15.72L123.916 15.6942Z" fill="#FFB5B1"/>
<path d="M130.595 62.3263H94.064C92.028 62.3263 90.3774 63.9806 90.3774 66.0213V87.9726C90.3774 90.0134 92.028 91.6677 94.064 91.6677H130.595C132.631 91.6677 134.282 90.0134 134.282 87.9726V66.0213C134.282 63.9806 132.631 62.3263 130.595 62.3263Z" fill="#E6E6E6"/>
<path d="M112.188 81.2649C114.707 81.2649 116.748 79.2186 116.748 76.6944C116.748 74.1702 114.707 72.1239 112.188 72.1239C109.67 72.1239 107.628 74.1702 107.628 76.6944C107.628 79.2186 109.67 81.2649 112.188 81.2649Z" fill="#C6C5C5"/>
<path d="M94.2181 105.122C94.2181 105.122 152.149 73.2054 158.983 83.6596C168.86 98.7745 153.768 106.383 99.9727 120.816L94.2181 105.122Z" fill="#37474F"/>
<path d="M78.2518 121.073C77.909 120.249 77.7322 119.364 77.7314 118.471C77.7307 117.577 77.906 116.692 78.2473 115.867C78.5887 115.041 79.0893 114.292 79.7205 113.661C80.3517 113.03 81.101 112.53 81.9254 112.19L95.2457 106.628L100.384 119.207L87.1148 124.794C86.2895 125.137 85.4048 125.312 84.5115 125.31C83.6183 125.308 82.7343 125.129 81.9104 124.783C81.0865 124.438 80.3391 123.932 79.7112 123.295C79.0832 122.658 78.5872 121.903 78.2518 121.073Z" fill="#8E8E8E"/>
<path d="M99.6644 117.185L89.5425 121.382C88.4149 121.85 87.1481 121.85 86.0207 121.381C84.8933 120.913 83.9978 120.015 83.5311 118.885C83.0644 117.755 83.0647 116.485 83.532 115.355C83.9993 114.225 84.8954 113.327 86.023 112.859L96.1449 108.662L99.6644 117.185Z" fill="#C2C8C7"/>
<path opacity="0.45" d="M99.6258 117.069L86.2542 122.644C84.7745 123.253 83.1276 123.319 81.6045 122.829C80.0814 122.339 78.7801 121.325 77.9306 119.966C78.0045 120.346 78.1164 120.717 78.2646 121.073C78.6037 121.9 79.1024 122.651 79.7319 123.283C80.3614 123.916 81.1094 124.418 81.9329 124.76C82.7564 125.102 83.6393 125.278 84.5307 125.277C85.4222 125.276 86.3047 125.099 87.1276 124.756L100.512 119.207L99.6258 117.069Z" fill="#A5A8A8"/>
<path d="M95.2457 117.301L93.1006 112.151C93.0766 112.088 93.0401 112.03 92.9931 111.981C92.9461 111.932 92.8896 111.893 92.8272 111.866C92.7647 111.84 92.6975 111.826 92.6297 111.827C92.5619 111.827 92.4949 111.841 92.4327 111.868C92.3704 111.893 92.3138 111.931 92.2663 111.979C92.2187 112.026 92.1813 112.083 92.1561 112.145C92.131 112.208 92.1186 112.275 92.1198 112.342C92.1209 112.41 92.1356 112.476 92.1629 112.538L94.2952 117.687C94.3491 117.811 94.4485 117.91 94.5728 117.963C94.6971 118.015 94.8368 118.018 94.9631 117.971C95.0868 117.917 95.1851 117.817 95.2377 117.692C95.2903 117.568 95.2932 117.428 95.2457 117.301Z" fill="#E6E6E6"/>
<path d="M92.0473 118.601L89.9022 113.452C89.8769 113.389 89.8394 113.332 89.7919 113.285C89.7444 113.237 89.6877 113.2 89.6254 113.174C89.5631 113.149 89.4963 113.137 89.4291 113.138C89.3619 113.139 89.2957 113.154 89.2342 113.181C89.1719 113.207 89.1153 113.244 89.0678 113.292C89.0203 113.339 88.9829 113.396 88.9577 113.459C88.9325 113.521 88.9201 113.588 88.9213 113.655C88.9225 113.723 88.9372 113.789 88.9645 113.851L91.0967 119.001C91.122 119.063 91.1595 119.12 91.207 119.167C91.2546 119.215 91.3112 119.253 91.3735 119.278C91.4359 119.303 91.5026 119.315 91.5698 119.314C91.637 119.313 91.7033 119.298 91.7647 119.271C91.8884 119.217 91.9867 119.117 92.0393 118.993C92.0919 118.868 92.0947 118.728 92.0473 118.601Z" fill="#E6E6E6"/>
<path d="M88.5792 120.043L86.4341 114.894C86.3828 114.767 86.2836 114.667 86.1584 114.614C86.0333 114.561 85.8922 114.559 85.7661 114.61C85.6425 114.664 85.545 114.765 85.4946 114.89C85.4441 115.015 85.4448 115.155 85.4964 115.28L87.6286 120.43C87.6799 120.556 87.779 120.657 87.9042 120.71C88.0294 120.763 88.1705 120.764 88.2966 120.713C88.4224 120.661 88.5229 120.562 88.5758 120.437C88.6288 120.311 88.63 120.17 88.5792 120.043Z" fill="#E6E6E6"/>
<path d="M30.4426 74.583C30.4426 74.583 15.0928 50.1211 19.8455 46.5033C24.5981 42.8855 29.2481 57.4082 31.6758 55.0779C34.1035 52.7475 23.2109 32.1094 28.3617 27.6677C33.5126 23.2259 33.1272 38.315 37.4945 41.1088C41.8619 43.9026 35.131 20.5094 40.359 16.9173C45.5869 13.3253 48.066 24.8739 48.066 24.8739C48.066 24.8739 53.8591 1.69945 61.656 6.28284C69.4529 10.8662 49.7101 34.105 54.3472 33.3197C58.9842 32.5343 63.7497 24.6679 67.7702 29.9594C71.7907 35.2509 45.4456 48.7306 49.6716 48.383C53.8976 48.0354 61.3734 42.7954 62.6708 47.4689C63.9681 52.1424 41.2966 60.5753 43.6858 62.1976C46.075 63.8198 57.8924 54.6401 59.7549 61.3993C61.6175 68.1585 35.1567 78.9217 30.4426 74.583Z" fill="#C2C8C7"/>
<path d="M28.5801 84.2133C31.4891 79.3311 33.8703 74.1519 35.6834 68.7636C36.6468 65.9054 37.4817 62.9314 38.2524 60.0732C38.6249 58.7858 38.9846 57.4983 39.3699 56.2108C43.6016 41.6651 49.5616 27.6817 57.1217 14.5613L57.43 14.7286C49.882 27.8264 43.9266 41.7833 39.6911 56.301C39.3186 57.5884 38.9589 58.8759 38.5864 60.1634C37.79 63.0344 36.9551 66.0085 36.0174 68.8795C34.1933 74.2882 31.8036 79.4884 28.8884 84.3935L28.5801 84.2133Z" fill="#16A085" fill-opacity="0.52"/>
<path d="M45.33 38.7656C45.2942 38.746 45.2668 38.714 45.2529 38.6755C43.5272 33.3801 42.3647 27.9166 41.7848 22.3762C41.7811 22.3304 41.795 22.2848 41.8236 22.2489C41.8523 22.213 41.8935 22.1895 41.9389 22.1831C41.9847 22.1793 42.0301 22.1933 42.0659 22.222C42.1017 22.2507 42.1252 22.292 42.1316 22.3376C42.7112 27.8432 43.8694 33.2721 45.5869 38.5339C45.5992 38.5783 45.5941 38.6257 45.5726 38.6664C45.5511 38.7071 45.5148 38.738 45.4713 38.7528C45.4499 38.7644 45.4263 38.7716 45.402 38.7738C45.3777 38.776 45.3532 38.7732 45.33 38.7656Z" fill="#16A085" fill-opacity="0.52"/>
<path d="M43.172 45.1515C43.1422 45.1203 43.1255 45.0788 43.1255 45.0356C43.1255 44.9924 43.1422 44.9509 43.172 44.9197C47.9315 41.2717 52.9263 37.9428 58.1236 34.9547C59.1124 34.3745 60.1696 33.9204 61.2706 33.6029C61.3147 33.5948 61.3603 33.6035 61.3983 33.6273C61.4363 33.6512 61.4641 33.6884 61.4762 33.7316C61.4879 33.7777 61.481 33.8266 61.4569 33.8676C61.4329 33.9086 61.3936 33.9384 61.3477 33.9505C60.2767 34.2434 59.2489 34.6762 58.2906 35.238C53.109 38.222 48.1273 41.5421 43.3776 45.1772C43.3462 45.1993 43.3078 45.2089 43.2698 45.2041C43.2319 45.1993 43.197 45.1806 43.172 45.1515Z" fill="#16A085" fill-opacity="0.52"/>
<path d="M39.7296 55.6057C37.2407 51.9975 35.0907 48.1659 33.3071 44.1601C32.1189 41.1538 31.0941 38.0851 30.2372 34.9676C30.2253 34.9249 30.2308 34.8793 30.2525 34.8407C30.2742 34.802 30.3102 34.7736 30.3528 34.7616C30.397 34.7493 30.4443 34.7545 30.4849 34.776C30.5256 34.7975 30.5564 34.8339 30.5711 34.8775C31.4296 37.9803 32.4501 41.0358 33.6282 44.0314C35.3844 48.0153 37.5089 51.8256 39.9737 55.4126C40.0044 55.4459 40.0214 55.4896 40.0214 55.5349C40.0214 55.5802 40.0044 55.6239 39.9737 55.6572C39.9556 55.6736 39.934 55.6854 39.9105 55.6917C39.887 55.6981 39.8623 55.6988 39.8385 55.6938C39.8147 55.6888 39.7924 55.6782 39.7735 55.6629C39.7546 55.6475 39.7395 55.628 39.7296 55.6057Z" fill="#16A085" fill-opacity="0.52"/>
<path d="M39.6782 55.7731C39.6467 55.7503 39.6235 55.7179 39.6119 55.6808C39.6004 55.6437 39.6011 55.6038 39.614 55.5671C39.6212 55.5457 39.6326 55.5259 39.6476 55.509C39.6626 55.4921 39.6808 55.4785 39.7012 55.4688C39.7216 55.4592 39.7437 55.4538 39.7663 55.453C39.7888 55.4522 39.8113 55.456 39.8323 55.4641C40.3416 55.5995 40.8773 55.5995 41.3866 55.4641C42.7849 55.1465 44.1552 54.7159 45.4842 54.1766L46.2292 53.8934C50.1469 52.4643 54.2444 51.3184 58.2007 50.3142C58.2433 50.3023 58.2888 50.3079 58.3274 50.3296C58.3659 50.3513 58.3943 50.3875 58.4062 50.4301C58.4141 50.452 58.4173 50.4754 58.4157 50.4986C58.414 50.5219 58.4076 50.5445 58.3967 50.5652C58.3858 50.5858 58.3708 50.6039 58.3525 50.6183C58.3342 50.6327 58.3132 50.6432 58.2906 50.649C54.3344 51.7047 50.2496 52.799 46.3448 54.2281L45.5998 54.4985C44.2559 55.0453 42.8679 55.476 41.4508 55.786C40.883 55.9402 40.2845 55.9402 39.7167 55.786L39.6782 55.7731Z" fill="#16A085" fill-opacity="0.52"/>
<path d="M35.4779 69.5747C30.8922 66.4204 25.6258 57.8974 22.5173 51.5502C22.4997 51.5074 22.4993 51.4594 22.516 51.4163C22.5328 51.3731 22.5654 51.3381 22.6072 51.3184C22.6484 51.2999 22.695 51.2975 22.7379 51.3118C22.7807 51.3261 22.8166 51.3561 22.8384 51.3957C25.9212 57.6914 31.1363 66.1501 35.6834 69.2786C35.702 69.2913 35.7179 69.3075 35.7302 69.3263C35.7425 69.3452 35.751 69.3663 35.7551 69.3884C35.7593 69.4105 35.7591 69.4332 35.7545 69.4553C35.7499 69.4773 35.741 69.4982 35.7284 69.5168C35.7157 69.5354 35.6996 69.5513 35.6808 69.5636C35.662 69.576 35.6409 69.5845 35.6189 69.5887C35.5968 69.5928 35.5741 69.5926 35.5522 69.588C35.5302 69.5834 35.5093 69.5745 35.4908 69.5619L35.4779 69.5747Z" fill="#16A085" fill-opacity="0.52"/>
<path d="M35.7733 69.7035L35.6577 69.6134C35.641 69.5977 35.6277 69.5788 35.6185 69.5577C35.6094 69.5367 35.6047 69.514 35.6047 69.491C35.6047 69.4681 35.6094 69.4454 35.6185 69.4244C35.6277 69.4033 35.641 69.3844 35.6577 69.3687C35.6909 69.338 35.7345 69.3209 35.7797 69.3209C35.825 69.3209 35.8685 69.338 35.9018 69.3687C36.2943 69.5805 36.7303 69.6987 37.1758 69.7144C37.6213 69.73 38.0644 69.6426 38.4708 69.4589L55.1693 64.8626C55.1912 64.8569 55.2141 64.8557 55.2365 64.8592C55.2589 64.8627 55.2804 64.8706 55.2996 64.8827C55.3189 64.8947 55.3354 64.9106 55.3484 64.9293C55.3613 64.948 55.3703 64.9691 55.3748 64.9914C55.3866 65.034 55.3811 65.0797 55.3595 65.1183C55.3378 65.1569 55.3017 65.1853 55.2592 65.1974L38.5607 69.7936C38.117 69.9808 37.6383 70.0697 37.1572 70.0541C36.6761 70.0386 36.204 69.919 35.7733 69.7035Z" fill="#16A085" fill-opacity="0.52"/>
<path d="M28.4517 74.171C28.4517 74.171 1.88822 62.5838 3.78928 56.9962C5.69034 51.4086 17.7261 60.6397 18.4198 57.3438C19.1134 54.0479 -1.56707 43.1817 0.154159 36.6156C1.87539 30.0495 10.109 42.6924 15.2984 42.5122C20.4878 42.3319 1.66986 26.9467 3.91774 20.9214C6.16561 14.896 14.8232 23.0843 14.8232 23.0843C14.8232 23.0843 6.51242 0.708124 15.5168 0.0128914C24.5211 -0.682341 21.3998 29.7663 24.7652 26.4703C28.1306 23.1744 27.6296 13.9819 33.9365 16.0547C40.2434 18.1275 26.1524 44.2503 29.4408 41.5595C32.7291 38.8687 35.9275 30.2813 39.7168 33.4098C43.506 36.5383 29.4408 56.3911 32.3566 56.3911C35.2724 56.3911 39.8067 42.0744 45.2016 46.5935C50.5965 51.1125 34.7201 75.0336 28.4517 74.171Z" fill="#86CEC0"/>
<path d="M32.3052 83.1446C31.9409 77.4791 30.9764 71.8685 29.4279 66.4075C28.6058 63.485 27.6039 60.5625 26.6405 57.7429C26.2038 56.4554 25.7671 55.168 25.356 53.8805C20.6232 39.4719 17.6304 24.5467 16.4416 9.42426H16.7884C17.9717 24.5254 20.9603 39.4294 25.69 53.8161C26.1139 55.1036 26.5506 56.3911 26.9745 57.6785C27.9379 60.5109 28.9398 63.4335 29.7619 66.3561C31.3163 71.8556 32.2851 77.5048 32.652 83.209L32.3052 83.1446Z" fill="#16A085" fill-opacity="0.52"/>
<path d="M20.385 36.1263C20.352 36.1393 20.3153 36.1393 20.2823 36.1263C15.8557 32.7467 11.8035 28.9009 8.19514 24.655C8.17995 24.6381 8.16821 24.6184 8.16064 24.5969C8.15307 24.5755 8.1498 24.5527 8.151 24.53C8.15219 24.5073 8.15784 24.4851 8.16762 24.4645C8.17739 24.444 8.19109 24.4256 8.20795 24.4104C8.22482 24.3952 8.24454 24.3834 8.26593 24.3758C8.28732 24.3683 8.30999 24.365 8.33265 24.3662C8.35531 24.3674 8.37751 24.373 8.39799 24.3828C8.41848 24.3926 8.43683 24.4063 8.45201 24.4232C12.0528 28.6467 16.0869 32.4787 20.4878 35.856C20.5185 35.8893 20.5355 35.9329 20.5355 35.9783C20.5355 36.0236 20.5185 36.0673 20.4878 36.1006C20.4564 36.118 20.4209 36.1269 20.385 36.1263Z" fill="#16A085" fill-opacity="0.52"/>
<path d="M22.2219 42.6152C22.1929 42.6214 22.1628 42.6198 22.1346 42.6105C22.1064 42.6012 22.0812 42.5846 22.0616 42.5623C22.042 42.54 22.0286 42.5129 22.023 42.4837C22.0173 42.4545 22.0194 42.4244 22.0292 42.3963C23.8894 36.6755 26.125 31.0843 28.7214 25.6592C29.2042 24.617 29.8218 23.6431 30.5583 22.7624C30.5889 22.7283 30.6319 22.7077 30.6776 22.7053C30.7234 22.7029 30.7682 22.7188 30.8023 22.7496C30.8364 22.7803 30.8569 22.8233 30.8593 22.8692C30.8617 22.9151 30.8458 22.96 30.8152 22.9942C30.1004 23.8523 29.5002 24.8002 29.0297 25.8137C26.4395 31.2399 24.2082 36.831 22.3503 42.5508C22.3345 42.5698 22.3149 42.5853 22.2928 42.5964C22.2707 42.6075 22.2465 42.6139 22.2219 42.6152Z" fill="#16A085" fill-opacity="0.52"/>
<path d="M25.3046 53.211H25.2404C21.1566 51.6377 17.2264 49.6897 13.5001 47.3917C10.8272 45.5849 8.25441 43.6336 5.79308 41.5466C5.77668 41.5321 5.76354 41.5143 5.75455 41.4943C5.74555 41.4743 5.74091 41.4526 5.74091 41.4307C5.74091 41.4088 5.74555 41.3871 5.75455 41.3671C5.76354 41.3472 5.77668 41.3293 5.79308 41.3148C5.8087 41.2981 5.82764 41.2847 5.84863 41.2756C5.86962 41.2664 5.89222 41.2617 5.91511 41.2617C5.938 41.2617 5.96064 41.2664 5.98163 41.2756C6.00262 41.2847 6.02152 41.2981 6.03714 41.3148C8.50087 43.3869 11.0736 45.3251 13.7441 47.1213C17.4476 49.4129 21.3567 51.3525 25.4203 52.9149C25.4417 52.9221 25.4614 52.9335 25.4782 52.9486C25.4951 52.9636 25.5087 52.9819 25.5183 53.0024C25.5279 53.0228 25.5333 53.045 25.5341 53.0676C25.5349 53.0902 25.5311 53.1127 25.523 53.1338C25.4975 53.1659 25.4635 53.1902 25.4249 53.2038C25.3863 53.2175 25.3446 53.22 25.3046 53.211Z" fill="#16A085" fill-opacity="0.52"/>
<path d="M25.356 53.3655C25.3177 53.3666 25.2801 53.3543 25.2497 53.3309C25.2193 53.3074 25.1979 53.2742 25.189 53.2368C25.1767 53.1924 25.1819 53.145 25.2034 53.1043C25.2249 53.0636 25.2611 53.0327 25.3046 53.0179C25.803 52.8526 26.2471 52.5544 26.5891 52.1553C27.5688 51.1002 28.4623 49.9679 29.2609 48.7693L29.7105 48.1127C32.1382 44.7009 34.8485 41.4693 37.5588 38.3537C37.5731 38.3368 37.5906 38.3228 37.6103 38.3127C37.63 38.3026 37.6515 38.2965 37.6736 38.2947C37.6957 38.2929 37.7179 38.2955 37.7389 38.3023C37.76 38.3091 37.7795 38.32 37.7964 38.3343C37.8133 38.3487 37.8271 38.3663 37.8372 38.386C37.8473 38.4058 37.8534 38.4273 37.8552 38.4494C37.857 38.4715 37.8545 38.4938 37.8477 38.5149C37.8409 38.536 37.83 38.5556 37.8157 38.5725C35.1568 41.6882 32.4079 44.9198 29.9931 48.3187L29.5435 48.9624C28.7365 50.178 27.8345 51.3274 26.846 52.3999C26.4552 52.8439 25.9545 53.1769 25.3945 53.3655H25.356Z" fill="#16A085" fill-opacity="0.52"/>
<path d="M29.7362 67.1414C24.1615 67.1414 15.003 63.1116 8.8502 59.6484C8.82301 59.6159 8.80814 59.5749 8.80814 59.5325C8.80814 59.4901 8.82301 59.4491 8.8502 59.4166C8.87439 59.376 8.91262 59.3458 8.9576 59.3315C9.00259 59.3173 9.05119 59.3201 9.09426 59.3394C15.2085 62.7898 24.3027 66.7938 29.8004 66.7938C29.8481 66.7938 29.8938 66.8128 29.9276 66.8466C29.9613 66.8804 29.9802 66.9262 29.9802 66.9741C29.9838 67.0044 29.979 67.0351 29.9664 67.0629C29.9538 67.0906 29.9338 67.1144 29.9087 67.1317C29.8836 67.1489 29.8542 67.1589 29.8238 67.1607C29.7934 67.1624 29.7631 67.1557 29.7362 67.1414Z" fill="#16A085" fill-opacity="0.52"/>
<path d="M30.0188 67.0899H29.8775C29.8511 67.0879 29.8256 67.0797 29.803 67.0658C29.7804 67.052 29.7614 67.0329 29.7476 67.0103C29.7338 66.9877 29.7256 66.9621 29.7236 66.9356C29.7216 66.9092 29.7259 66.8826 29.7362 66.8582C29.7425 66.8115 29.7655 66.7688 29.801 66.738C29.8364 66.7072 29.8819 66.6904 29.9289 66.6908C30.7638 66.6908 31.4703 66.0728 32.1125 65.3132L43.3262 52.0008C43.3405 51.9839 43.3581 51.97 43.3778 51.9599C43.3975 51.9498 43.419 51.9436 43.4411 51.9418C43.4631 51.94 43.4853 51.9426 43.5064 51.9494C43.5275 51.9562 43.547 51.9671 43.5639 51.9815C43.5807 51.9959 43.5946 52.0134 43.6047 52.0332C43.6148 52.0529 43.6209 52.0745 43.6227 52.0966C43.6245 52.1187 43.6219 52.141 43.6151 52.1621C43.6083 52.1832 43.5975 52.2028 43.5831 52.2197L32.3052 65.5707C32.055 65.9734 31.7214 66.3175 31.3269 66.5796C30.9324 66.8418 30.4863 67.0158 30.0188 67.0899Z" fill="#16A085" fill-opacity="0.52"/>
<path d="M16.6471 78.278L20.886 104.594C21.1893 106.393 22.1179 108.026 23.5074 109.204C24.8968 110.382 26.6574 111.029 28.4774 111.031H41.3994C43.2194 111.029 44.98 110.382 46.3695 109.204C47.7589 108.026 48.6875 106.393 48.9908 104.594L53.2297 78.278H16.6471Z" fill="#979797"/>
<path d="M53.2297 78.278H16.6471L17.238 81.9215H45.497L41.849 104.594C41.5457 106.393 40.6171 108.026 39.2276 109.204C37.8382 110.382 36.0776 111.029 34.2576 111.031H41.4637C43.2837 111.029 45.0443 110.382 46.4337 109.204C47.8231 108.026 48.7518 106.393 49.0551 104.594L52.7031 81.9215L53.2297 78.278Z" fill="#C2C8C7"/>
<path d="M53.6407 70.7206H16.2361C15.2141 70.7206 14.2339 71.1275 13.5112 71.8518C12.7886 72.5762 12.3826 73.5586 12.3826 74.583C12.3826 75.6074 12.7886 76.5898 13.5112 77.3141C14.2339 78.0385 15.2141 78.4454 16.2361 78.4454H53.6407C54.6627 78.4454 55.6429 78.0385 56.3656 77.3141C57.0882 76.5898 57.4942 75.6074 57.4942 74.583C57.4942 73.5586 57.0882 72.5762 56.3656 71.8518C55.6429 71.1275 54.6627 70.7206 53.6407 70.7206Z" fill="#979797"/>
<ellipse cx="107.893" cy="19.845" rx="0.989848" ry="0.992248" fill="#263238"/>
<ellipse cx="117.792" cy="19.845" rx="0.989848" ry="0.992248" fill="#263238"/>
<ellipse cx="112.843" cy="29.2713" rx="2.96954" ry="0.496124" fill="#FCF4F4"/>
<path d="M111.863 24.3359C111.975 24.5202 112.125 24.6781 112.304 24.7987C112.482 24.9192 112.684 24.9997 112.896 25.0344C113.074 25.0664 113.255 25.0664 113.433 25.0344H113.537H113.633C113.689 25.0344 113.713 24.9782 113.721 24.922C113.721 24.922 113.721 24.922 113.721 24.8738V24.7454C113.721 24.3681 113.657 23.79 113.657 23.79C113.785 23.8543 114.457 24.1433 114.409 23.9426C114.295 22.2386 114.027 20.5485 113.609 18.8929C113.609 18.8822 113.605 18.872 113.597 18.8645C113.59 18.8569 113.579 18.8527 113.569 18.8527C113.558 18.8527 113.548 18.8569 113.54 18.8645C113.533 18.872 113.529 18.8822 113.529 18.8929C113.617 20.4985 113.953 22.0238 114.065 23.6134C113.84 23.5072 113.599 23.4368 113.353 23.4047C113.305 23.4047 113.473 24.5126 113.465 24.6892C113.18 24.7371 112.888 24.7202 112.611 24.6396C112.334 24.559 112.078 24.4168 111.863 24.2236C111.863 24.2236 111.839 24.2958 111.863 24.3359Z" fill="#263238"/>
</g>
<defs>
<clipPath id="clip0_6_81">
<rect width="195" height="128" fill="white"/>
</clipPath>
</defs>
</svg>
